<svg width="14" height="14" viewBox="0 0 14 14" fill="none" xmlns="http://www.w3.org/2000/svg">
<g clip-path="url(#clip0_144_326)">
<path d="M7 0C3.13404 0 0 3.13404 0 7C0 10.2827 2.26016 13.0374 5.30908 13.7939V9.1392H3.86568V7H5.30908V6.07824C5.30908 3.69572 6.38736 2.5914 8.72648 2.5914C9.17 2.5914 9.93524 2.67848 10.2483 2.76528V4.70428C10.0831 4.68692 9.79608 4.67824 9.43964 4.67824C8.29192 4.67824 7.8484 5.11308 7.8484 6.24344V7H10.1349L9.74204 9.1392H7.8484V13.9488C11.3145 13.5302 14.0003 10.579 14.0003 7C14 3.13404 10.866 0 7 0Z" fill="black"/>
</g>
<defs>
<clipPath id="clip0_144_326">
<rect width="14" height="14" fill="white"/>
</clipPath>
</defs>
</svg>
